<mxfile host="Electron" modified="2023-06-25T09:46:45.393Z" agent="Mozilla/5.0 (Windows NT 10.0; Win64; x64) AppleWebKit/537.36 (KHTML, like Gecko) draw.io/21.5.0 Chrome/112.0.5615.204 Electron/24.5.1 Safari/537.36" etag="RQOFsijgZ7fnV-H8QYqS" version="21.5.0" type="device">
  <diagram id="rIQf-ginqighOvvjvXMP" name="Pagina-1">
    <mxGraphModel dx="2074" dy="836" grid="1" gridSize="10" guides="1" tooltips="1" connect="1" arrows="1" fold="1" page="1" pageScale="1" pageWidth="827" pageHeight="1169" math="0" shadow="0">
      <root>
        <mxCell id="0" />
        <mxCell id="1" parent="0" />
        <mxCell id="1aL286UIjSfrJzDtVEBF-1" value="" style="ellipse;whiteSpace=wrap;html=1;aspect=fixed;fillColor=#000000;" parent="1" vertex="1">
          <mxGeometry x="40" y="80" width="40" height="40" as="geometry" />
        </mxCell>
        <mxCell id="1aL286UIjSfrJzDtVEBF-2" value="" style="endArrow=classic;html=1;rounded=0;" parent="1" edge="1">
          <mxGeometry width="50" height="50" relative="1" as="geometry">
            <mxPoint x="80" y="100" as="sourcePoint" />
            <mxPoint x="160" y="100" as="targetPoint" />
          </mxGeometry>
        </mxCell>
        <mxCell id="1aL286UIjSfrJzDtVEBF-3" value="On login page" style="rounded=0;whiteSpace=wrap;html=1;fillColor=#FFFFFF;" parent="1" vertex="1">
          <mxGeometry x="160" y="85" width="90" height="30" as="geometry" />
        </mxCell>
        <mxCell id="1aL286UIjSfrJzDtVEBF-27" value="" style="ellipse;whiteSpace=wrap;html=1;aspect=fixed;fillColor=#000000;" parent="1" vertex="1">
          <mxGeometry x="438" y="585" width="40" height="40" as="geometry" />
        </mxCell>
        <mxCell id="1aL286UIjSfrJzDtVEBF-28" value="" style="ellipse;whiteSpace=wrap;html=1;aspect=fixed;fillColor=none;" parent="1" vertex="1">
          <mxGeometry x="433" y="580" width="50" height="50" as="geometry" />
        </mxCell>
        <mxCell id="fzKaXuHbbv-Ukg_ITXbK-3" value="Use Case: add recipes" style="text;html=1;align=center;verticalAlign=middle;resizable=0;points=[];autosize=1;strokeColor=none;fillColor=none;" parent="1" vertex="1">
          <mxGeometry x="25" y="10" width="140" height="30" as="geometry" />
        </mxCell>
        <mxCell id="fzKaXuHbbv-Ukg_ITXbK-12" style="edgeStyle=orthogonalEdgeStyle;rounded=0;orthogonalLoop=1;jettySize=auto;html=1;fontSize=7;" parent="1" target="fzKaXuHbbv-Ukg_ITXbK-9" edge="1">
          <mxGeometry relative="1" as="geometry">
            <mxPoint x="458" y="210" as="sourcePoint" />
          </mxGeometry>
        </mxCell>
        <mxCell id="vLc3bFtOtaBxXI4tbTCy-2" style="edgeStyle=orthogonalEdgeStyle;rounded=0;orthogonalLoop=1;jettySize=auto;html=1;exitX=0.5;exitY=1;exitDx=0;exitDy=0;" edge="1" parent="1" source="fzKaXuHbbv-Ukg_ITXbK-6" target="vLc3bFtOtaBxXI4tbTCy-1">
          <mxGeometry relative="1" as="geometry" />
        </mxCell>
        <mxCell id="fzKaXuHbbv-Ukg_ITXbK-6" value="On main menu" style="rounded=0;whiteSpace=wrap;html=1;fillColor=#FFFFFF;" parent="1" vertex="1">
          <mxGeometry x="414" y="85" width="90" height="30" as="geometry" />
        </mxCell>
        <mxCell id="fzKaXuHbbv-Ukg_ITXbK-7" value="" style="endArrow=classic;html=1;rounded=0;exitX=1;exitY=0.5;exitDx=0;exitDy=0;entryX=0;entryY=0.5;entryDx=0;entryDy=0;" parent="1" source="1aL286UIjSfrJzDtVEBF-3" target="fzKaXuHbbv-Ukg_ITXbK-6" edge="1">
          <mxGeometry width="50" height="50" relative="1" as="geometry">
            <mxPoint x="540" y="160" as="sourcePoint" />
            <mxPoint x="590" y="110" as="targetPoint" />
          </mxGeometry>
        </mxCell>
        <mxCell id="fzKaXuHbbv-Ukg_ITXbK-8" value="&lt;font style=&quot;font-size: 7px;&quot;&gt;tap[selection == Login &amp;amp;&amp;amp; credentialIsValid == true] /&amp;nbsp;&lt;br&gt;go to main menu&lt;br&gt;&lt;/font&gt;" style="text;html=1;align=center;verticalAlign=middle;resizable=0;points=[];autosize=1;strokeColor=none;fillColor=none;" parent="1" vertex="1">
          <mxGeometry x="240" y="60" width="190" height="40" as="geometry" />
        </mxCell>
        <mxCell id="fzKaXuHbbv-Ukg_ITXbK-14" style="edgeStyle=orthogonalEdgeStyle;rounded=0;orthogonalLoop=1;jettySize=auto;html=1;exitX=1;exitY=0.5;exitDx=0;exitDy=0;fontSize=7;entryX=1;entryY=0.5;entryDx=0;entryDy=0;" parent="1" source="fzKaXuHbbv-Ukg_ITXbK-9" target="fzKaXuHbbv-Ukg_ITXbK-6" edge="1">
          <mxGeometry relative="1" as="geometry">
            <mxPoint x="640" y="90" as="targetPoint" />
            <Array as="points">
              <mxPoint x="600" y="315" />
              <mxPoint x="600" y="100" />
            </Array>
          </mxGeometry>
        </mxCell>
        <mxCell id="fzKaXuHbbv-Ukg_ITXbK-23" style="edgeStyle=orthogonalEdgeStyle;rounded=0;orthogonalLoop=1;jettySize=auto;html=1;exitX=0.5;exitY=1;exitDx=0;exitDy=0;entryX=0.5;entryY=0;entryDx=0;entryDy=0;fontSize=7;" parent="1" source="fzKaXuHbbv-Ukg_ITXbK-9" target="fzKaXuHbbv-Ukg_ITXbK-17" edge="1">
          <mxGeometry relative="1" as="geometry" />
        </mxCell>
        <mxCell id="fzKaXuHbbv-Ukg_ITXbK-26" style="edgeStyle=orthogonalEdgeStyle;rounded=0;orthogonalLoop=1;jettySize=auto;html=1;exitX=0.75;exitY=1;exitDx=0;exitDy=0;entryX=0.75;entryY=0;entryDx=0;entryDy=0;fontSize=7;" parent="1" source="fzKaXuHbbv-Ukg_ITXbK-9" target="fzKaXuHbbv-Ukg_ITXbK-20" edge="1">
          <mxGeometry relative="1" as="geometry">
            <Array as="points">
              <mxPoint x="481" y="350" />
              <mxPoint x="618" y="350" />
            </Array>
          </mxGeometry>
        </mxCell>
        <mxCell id="fzKaXuHbbv-Ukg_ITXbK-29" style="edgeStyle=orthogonalEdgeStyle;rounded=0;orthogonalLoop=1;jettySize=auto;html=1;exitX=0.25;exitY=1;exitDx=0;exitDy=0;entryX=0.5;entryY=0;entryDx=0;entryDy=0;fontSize=7;" parent="1" source="fzKaXuHbbv-Ukg_ITXbK-9" target="fzKaXuHbbv-Ukg_ITXbK-16" edge="1">
          <mxGeometry relative="1" as="geometry">
            <Array as="points">
              <mxPoint x="436" y="350" />
              <mxPoint x="313" y="350" />
            </Array>
          </mxGeometry>
        </mxCell>
        <mxCell id="fzKaXuHbbv-Ukg_ITXbK-9" value="&amp;nbsp;On add recipes" style="rounded=0;whiteSpace=wrap;html=1;fillColor=#FFFFFF;" parent="1" vertex="1">
          <mxGeometry x="413" y="300" width="90" height="30" as="geometry" />
        </mxCell>
        <mxCell id="fzKaXuHbbv-Ukg_ITXbK-13" value="tap[selection == MyRecipes] /&amp;nbsp;&lt;br&gt;go to add new recipes" style="text;html=1;align=center;verticalAlign=middle;resizable=0;points=[];autosize=1;strokeColor=none;fillColor=none;fontSize=7;" parent="1" vertex="1">
          <mxGeometry x="334" y="130" width="120" height="30" as="geometry" />
        </mxCell>
        <mxCell id="fzKaXuHbbv-Ukg_ITXbK-15" value="tap[selection == backHome] /&lt;br&gt;go to main menu" style="text;html=1;align=center;verticalAlign=middle;resizable=0;points=[];autosize=1;strokeColor=none;fillColor=none;fontSize=7;" parent="1" vertex="1">
          <mxGeometry x="515" y="75" width="110" height="30" as="geometry" />
        </mxCell>
        <mxCell id="fzKaXuHbbv-Ukg_ITXbK-32" style="edgeStyle=orthogonalEdgeStyle;rounded=0;orthogonalLoop=1;jettySize=auto;html=1;exitX=0.5;exitY=1;exitDx=0;exitDy=0;entryX=0.5;entryY=0;entryDx=0;entryDy=0;fontSize=7;" parent="1" source="fzKaXuHbbv-Ukg_ITXbK-16" target="1aL286UIjSfrJzDtVEBF-28" edge="1">
          <mxGeometry relative="1" as="geometry" />
        </mxCell>
        <mxCell id="fzKaXuHbbv-Ukg_ITXbK-16" value="On description form" style="rounded=0;whiteSpace=wrap;html=1;fillColor=#FFFFFF;" parent="1" vertex="1">
          <mxGeometry x="268" y="430" width="90" height="30" as="geometry" />
        </mxCell>
        <mxCell id="fzKaXuHbbv-Ukg_ITXbK-33" style="edgeStyle=orthogonalEdgeStyle;rounded=0;orthogonalLoop=1;jettySize=auto;html=1;exitX=0.5;exitY=1;exitDx=0;exitDy=0;fontSize=7;" parent="1" source="fzKaXuHbbv-Ukg_ITXbK-17" edge="1">
          <mxGeometry relative="1" as="geometry">
            <mxPoint x="458" y="580" as="targetPoint" />
          </mxGeometry>
        </mxCell>
        <mxCell id="fzKaXuHbbv-Ukg_ITXbK-17" value="On ingredients form" style="rounded=0;whiteSpace=wrap;html=1;fillColor=#FFFFFF;" parent="1" vertex="1">
          <mxGeometry x="413" y="430" width="90" height="30" as="geometry" />
        </mxCell>
        <mxCell id="fzKaXuHbbv-Ukg_ITXbK-34" style="edgeStyle=orthogonalEdgeStyle;rounded=0;orthogonalLoop=1;jettySize=auto;html=1;exitX=0.5;exitY=1;exitDx=0;exitDy=0;fontSize=7;" parent="1" edge="1">
          <mxGeometry relative="1" as="geometry">
            <mxPoint x="457" y="580" as="targetPoint" />
            <mxPoint x="593" y="460" as="sourcePoint" />
            <Array as="points">
              <mxPoint x="593" y="520" />
              <mxPoint x="458" y="520" />
              <mxPoint x="458" y="580" />
            </Array>
          </mxGeometry>
        </mxCell>
        <mxCell id="fzKaXuHbbv-Ukg_ITXbK-20" value="On name form" style="rounded=0;whiteSpace=wrap;html=1;fillColor=#FFFFFF;" parent="1" vertex="1">
          <mxGeometry x="550" y="430" width="90" height="30" as="geometry" />
        </mxCell>
        <mxCell id="fzKaXuHbbv-Ukg_ITXbK-25" value="tap[selection == insertIngredients] /&lt;br&gt;select ingredients form" style="text;html=1;align=center;verticalAlign=middle;resizable=0;points=[];autosize=1;strokeColor=none;fillColor=none;fontSize=7;" parent="1" vertex="1">
          <mxGeometry x="449" y="380" width="130" height="30" as="geometry" />
        </mxCell>
        <mxCell id="fzKaXuHbbv-Ukg_ITXbK-28" value="tap[selection == insertName] /&amp;nbsp;&lt;br&gt;select steps form" style="text;html=1;align=center;verticalAlign=middle;resizable=0;points=[];autosize=1;strokeColor=none;fillColor=none;fontSize=7;" parent="1" vertex="1">
          <mxGeometry x="609" y="380" width="120" height="30" as="geometry" />
        </mxCell>
        <mxCell id="fzKaXuHbbv-Ukg_ITXbK-30" value="tap[selection == insertDescription] /&amp;nbsp;&lt;br&gt;select description form" style="text;html=1;align=center;verticalAlign=middle;resizable=0;points=[];autosize=1;strokeColor=none;fillColor=none;fontSize=7;" parent="1" vertex="1">
          <mxGeometry x="189" y="380" width="130" height="30" as="geometry" />
        </mxCell>
        <mxCell id="vLc3bFtOtaBxXI4tbTCy-5" style="edgeStyle=orthogonalEdgeStyle;rounded=0;orthogonalLoop=1;jettySize=auto;html=1;exitX=1;exitY=0.5;exitDx=0;exitDy=0;entryX=1;entryY=0.5;entryDx=0;entryDy=0;" edge="1" parent="1" source="vLc3bFtOtaBxXI4tbTCy-1" target="fzKaXuHbbv-Ukg_ITXbK-6">
          <mxGeometry relative="1" as="geometry" />
        </mxCell>
        <mxCell id="vLc3bFtOtaBxXI4tbTCy-1" value="On My Recipes" style="rounded=0;whiteSpace=wrap;html=1;fillColor=#FFFFFF;" vertex="1" parent="1">
          <mxGeometry x="414" y="180" width="90" height="30" as="geometry" />
        </mxCell>
        <mxCell id="vLc3bFtOtaBxXI4tbTCy-4" value="tap[selection == AddNewRecipes] /&amp;nbsp;&lt;br&gt;go to add new recipes" style="text;html=1;align=center;verticalAlign=middle;resizable=0;points=[];autosize=1;strokeColor=none;fillColor=none;fontSize=7;" vertex="1" parent="1">
          <mxGeometry x="329" y="230" width="130" height="30" as="geometry" />
        </mxCell>
        <mxCell id="vLc3bFtOtaBxXI4tbTCy-6" value="&lt;font style=&quot;font-size: 5px;&quot;&gt;tap[selection == backHome] /&lt;br&gt;go to main menu&lt;/font&gt;" style="text;html=1;align=center;verticalAlign=middle;resizable=0;points=[];autosize=1;strokeColor=none;fillColor=none;fontSize=7;" vertex="1" parent="1">
          <mxGeometry x="503" y="190" width="90" height="30" as="geometry" />
        </mxCell>
        <mxCell id="vLc3bFtOtaBxXI4tbTCy-7" value="&lt;font style=&quot;font-size: 9px;&quot;&gt;tap[selection == Confirm] /&lt;br&gt;save recipe&lt;/font&gt;" style="text;html=1;align=center;verticalAlign=middle;resizable=0;points=[];autosize=1;strokeColor=none;fillColor=none;" vertex="1" parent="1">
          <mxGeometry x="463" y="530" width="130" height="40" as="geometry" />
        </mxCell>
      </root>
    </mxGraphModel>
  </diagram>
</mxfile>
